<svg width="100" height="100" viewBox="0 0 100 100" fill="none" xmlns="http://www.w3.org/2000/svg">
					<path d="M0 50C0 10 10 0 50 0C90 0 100 10 100 50C100 90 90 100 50 100C10 100 0 90 0 50Z" fill="#2196F3" />
					<path
						id="arrow"
						d="M25.7294 38.0917L14.9794 49.6778L25.7294 61.2639C26.3943 61.9806 26.7268 62.8167 26.7268 63.7722C26.7268 64.7278 26.3943 65.5639 25.7294 66.2806C25.0644 66.9972 24.2887 67.3556 23.4021 67.3556C22.5155 67.3556 21.7397 66.9972 21.0747 66.2806L7.99742 52.1861C7.33247 51.4694 7 50.6333 7 49.6778C7 48.7222 7.33247 47.8861 7.99742 47.1694L21.0747 33.075C21.7397 32.3583 22.5155 32 23.4021 32C24.2887 32 25.0644 32.3583 25.7294 33.075C26.3943 33.7917 26.7268 34.6278 26.7268 35.5833C26.7268 36.5389 26.3943 37.375 25.7294 38.0917Z"
						fill="#e3f2fd" />
					<use href="#arrow" transform="rotate(180, 50, 49.6)" />
				</svg>